STARTFONT 2.1
FONT -DEC-Terminal-Medium-R-Narrow--14-140-75-75-C-60-iso8859-2
SIZE 14 75 75
FONTBOUNDINGBOX 6 13 0 -2

STARTPROPERTIES 24
FOUNDRY "Monotype"
FAMILY_NAME "VT"
WEIGHT_NAME "Regular"
SLANT "R"
SETWIDTH_NAME "Narrow"
ADD_STYLE_NAME ""
PIXEL_SIZE 14
POINT_SIZE 140
RESOLUTION_X 75
RESOLUTION_Y 75
SPACING "C"
AVERAGE_WIDTH 60
CHARSET_REGISTRY "iso8859"
CHARSET_ENCODING "2"
FACE_NAME "VT Narrow ISO Latin2"
_DEC_DEVICE_FONTNAMES "PS=VT-Narrow-ISOLatin2"
COPYRIGHT "Copyright (c) 1994 Monotype Typography Ltd."
CAP_HEIGHT 8
X_HEIGHT 6
WEIGHT 10
QUAD_WIDTH 5
DEFAULT_CHAR 160
FONT_DESCENT 3
FONT_ASCENT 12
ENDPROPERTIES

CHARS 191

STARTCHAR space
ENCODING 32
SWIDTH 411 0
DWIDTH 6 0
BBX 0 0 0 0
BITMAP
ENDCHAR

STARTCHAR exclam
ENCODING 33
SWIDTH 411 0
DWIDTH 6 0
BBX 1 8 3 0
BITMAP
80
80
80
80
80
80
00
80
ENDCHAR

STARTCHAR quotedbl
ENCODING 34
SWIDTH 411 0
DWIDTH 6 0
BBX 3 3 2 6
BITMAP
A0
A0
A0
ENDCHAR

STARTCHAR numbersign
ENCODING 35
SWIDTH 411 0
DWIDTH 6 0
BBX 5 7 1 1
BITMAP
50
50
F8
50
F8
50
50
ENDCHAR

STARTCHAR dollar
ENCODING 36
SWIDTH 411 0
DWIDTH 6 0
BBX 5 8 1 0
BITMAP
20
70
A8
70
28
A8
70
20
ENDCHAR

STARTCHAR percent
ENCODING 37
SWIDTH 411 0
DWIDTH 6 0
BBX 6 8 0 0
BITMAP
48
A8
50
10
20
28
54
48
ENDCHAR

STARTCHAR ampersand
ENCODING 38
SWIDTH 411 0
DWIDTH 6 0
BBX 5 8 1 0
BITMAP
20
50
50
20
68
90
90
78
ENDCHAR

STARTCHAR apostrophe
ENCODING 39
SWIDTH 411 0
DWIDTH 6 0
BBX 2 2 3 9
BITMAP
40
80
ENDCHAR

STARTCHAR parenleft
ENCODING 40
SWIDTH 411 0
DWIDTH 6 0
BBX 3 10 2 -1
BITMAP
20
40
40
80
80
80
80
40
40
20
ENDCHAR

STARTCHAR parenright
ENCODING 41
SWIDTH 411 0
DWIDTH 6 0
BBX 3 10 2 -1
BITMAP
80
40
40
20
20
20
20
40
40
80
ENDCHAR

STARTCHAR asterisk
ENCODING 42
SWIDTH 411 0
DWIDTH 6 0
BBX 5 6 1 2
BITMAP
20
A8
70
70
A8
20
ENDCHAR

STARTCHAR plus
ENCODING 43
SWIDTH 411 0
DWIDTH 6 0
BBX 5 5 1 2
BITMAP
20
20
F8
20
20
ENDCHAR

STARTCHAR comma
ENCODING 44
SWIDTH 411 0
DWIDTH 6 0
BBX 2 3 2 -1
BITMAP
40
40
80
ENDCHAR

STARTCHAR minus
ENCODING 45
SWIDTH 411 0
DWIDTH 6 0
BBX 5 1 1 4
BITMAP
F8
ENDCHAR

STARTCHAR period
ENCODING 46
SWIDTH 411 0
DWIDTH 6 0
BBX 1 2 3 0
BITMAP
80
80
ENDCHAR

STARTCHAR slash
ENCODING 47
SWIDTH 411 0
DWIDTH 6 0
BBX 4 8 1 0
BITMAP
10
10
20
20
40
40
80
80
ENDCHAR

STARTCHAR 0
ENCODING 48
SWIDTH 411 0
DWIDTH 6 0
BBX 5 8 1 0
BITMAP
20
50
88
88
88
88
50
20
ENDCHAR

STARTCHAR 1
ENCODING 49
SWIDTH 411 0
DWIDTH 6 0
BBX 5 8 1 0
BITMAP
20
60
20
20
20
20
20
F8
ENDCHAR

STARTCHAR 2
ENCODING 50
SWIDTH 411 0
DWIDTH 6 0
BBX 5 8 1 0
BITMAP
70
88
08
10
20
40
80
F8
ENDCHAR

STARTCHAR 3
ENCODING 51
SWIDTH 411 0
DWIDTH 6 0
BBX 5 8 1 0
BITMAP
70
88
08
30
08
08
88
70
ENDCHAR

STARTCHAR 4
ENCODING 52
SWIDTH 411 0
DWIDTH 6 0
BBX 5 8 1 0
BITMAP
10
30
50
90
90
F8
10
10
ENDCHAR

STARTCHAR 5
ENCODING 53
SWIDTH 411 0
DWIDTH 6 0
BBX 5 8 1 0
BITMAP
F8
80
80
F0
88
08
88
70
ENDCHAR

STARTCHAR 6
ENCODING 54
SWIDTH 411 0
DWIDTH 6 0
BBX 5 8 1 0
BITMAP
30
40
80
F0
88
88
88
70
ENDCHAR

STARTCHAR 7
ENCODING 55
SWIDTH 411 0
DWIDTH 6 0
BBX 5 8 1 0
BITMAP
F8
08
10
20
20
40
40
40
ENDCHAR

STARTCHAR 8
ENCODING 56
SWIDTH 411 0
DWIDTH 6 0
BBX 5 8 1 0
BITMAP
70
88
88
70
88
88
88
70
ENDCHAR

STARTCHAR 9
ENCODING 57
SWIDTH 411 0
DWIDTH 6 0
BBX 5 8 1 0
BITMAP
70
88
88
88
78
08
10
60
ENDCHAR

STARTCHAR colon
ENCODING 58
SWIDTH 411 0
DWIDTH 6 0
BBX 1 6 3 0
BITMAP
80
80
00
00
80
80
ENDCHAR

STARTCHAR semicolon
ENCODING 59
SWIDTH 411 0
DWIDTH 6 0
BBX 2 7 2 -1
BITMAP
40
40
00
00
40
40
80
ENDCHAR

STARTCHAR less
ENCODING 60
SWIDTH 411 0
DWIDTH 6 0
BBX 4 7 1 0
BITMAP
10
20
40
80
40
20
10
ENDCHAR

STARTCHAR equal
ENCODING 61
SWIDTH 411 0
DWIDTH 6 0
BBX 5 3 1 2
BITMAP
F8
00
F8
ENDCHAR

STARTCHAR greater
ENCODING 62
SWIDTH 411 0
DWIDTH 6 0
BBX 4 7 2 0
BITMAP
80
40
20
10
20
40
80
ENDCHAR

STARTCHAR question
ENCODING 63
SWIDTH 411 0
DWIDTH 6 0
BBX 5 8 1 0
BITMAP
70
88
08
10
20
20
00
20
ENDCHAR

STARTCHAR at
ENCODING 64
SWIDTH 411 0
DWIDTH 6 0
BBX 5 8 1 0
BITMAP
70
88
98
A8
A8
98
80
78
ENDCHAR

STARTCHAR A
ENCODING 65
SWIDTH 411 0
DWIDTH 6 0
BBX 5 8 1 0
BITMAP
20
50
50
88
88
F8
88
88
ENDCHAR

STARTCHAR B
ENCODING 66
SWIDTH 411 0
DWIDTH 6 0
BBX 5 8 1 0
BITMAP
F0
88
88
F0
88
88
88
F0
ENDCHAR

STARTCHAR C
ENCODING 67
SWIDTH 411 0
DWIDTH 6 0
BBX 5 8 1 0
BITMAP
70
88
80
80
80
80
88
70
ENDCHAR

STARTCHAR D
ENCODING 68
SWIDTH 411 0
DWIDTH 6 0
BBX 5 8 1 0
BITMAP
F0
88
88
88
88
88
88
F0
ENDCHAR

STARTCHAR E
ENCODING 69
SWIDTH 411 0
DWIDTH 6 0
BBX 4 8 2 0
BITMAP
F0
80
80
E0
80
80
80
F0
ENDCHAR

STARTCHAR F
ENCODING 70
SWIDTH 411 0
DWIDTH 6 0
BBX 4 8 2 0
BITMAP
F0
80
80
E0
80
80
80
80
ENDCHAR

STARTCHAR G
ENCODING 71
SWIDTH 411 0
DWIDTH 6 0
BBX 5 8 1 0
BITMAP
70
88
80
98
88
88
88
78
ENDCHAR

STARTCHAR H
ENCODING 72
SWIDTH 411 0
DWIDTH 6 0
BBX 5 8 1 0
BITMAP
88
88
88
F8
88
88
88
88
ENDCHAR

STARTCHAR I
ENCODING 73
SWIDTH 411 0
DWIDTH 6 0
BBX 5 8 1 0
BITMAP
F8
20
20
20
20
20
20
F8
ENDCHAR

STARTCHAR J
ENCODING 74
SWIDTH 411 0
DWIDTH 6 0
BBX 5 8 1 0
BITMAP
78
10
10
10
10
10
90
60
ENDCHAR

STARTCHAR K
ENCODING 75
SWIDTH 411 0
DWIDTH 6 0
BBX 5 8 1 0
BITMAP
88
90
A0
C0
C0
A0
90
88
ENDCHAR

STARTCHAR L
ENCODING 76
SWIDTH 411 0
DWIDTH 6 0
BBX 4 8 2 0
BITMAP
80
80
80
80
80
80
80
F0
ENDCHAR

STARTCHAR M
ENCODING 77
SWIDTH 411 0
DWIDTH 6 0
BBX 5 8 1 0
BITMAP
88
D8
D8
A8
A8
88
88
88
ENDCHAR

STARTCHAR N
ENCODING 78
SWIDTH 411 0
DWIDTH 6 0
BBX 5 8 1 0
BITMAP
88
C8
C8
A8
A8
98
98
88
ENDCHAR

STARTCHAR O
ENCODING 79
SWIDTH 411 0
DWIDTH 6 0
BBX 5 8 1 0
BITMAP
70
88
88
88
88
88
88
70
ENDCHAR

STARTCHAR P
ENCODING 80
SWIDTH 411 0
DWIDTH 6 0
BBX 5 8 1 0
BITMAP
F0
88
88
88
F0
80
80
80
ENDCHAR

STARTCHAR Q
ENCODING 81
SWIDTH 411 0
DWIDTH 6 0
BBX 5 9 1 -1
BITMAP
70
88
88
88
88
88
A8
70
08
ENDCHAR

STARTCHAR R
ENCODING 82
SWIDTH 411 0
DWIDTH 6 0
BBX 5 8 1 0
BITMAP
F0
88
88
88
F0
A0
90
88
ENDCHAR

STARTCHAR S
ENCODING 83
SWIDTH 411 0
DWIDTH 6 0
BBX 5 8 1 0
BITMAP
70
88
80
70
08
08
88
70
ENDCHAR

STARTCHAR T
ENCODING 84
SWIDTH 411 0
DWIDTH 6 0
BBX 5 8 1 0
BITMAP
F8
20
20
20
20
20
20
20
ENDCHAR

STARTCHAR U
ENCODING 85
SWIDTH 411 0
DWIDTH 6 0
BBX 5 8 1 0
BITMAP
88
88
88
88
88
88
88
70
ENDCHAR

STARTCHAR V
ENCODING 86
SWIDTH 411 0
DWIDTH 6 0
BBX 5 8 1 0
BITMAP
88
88
88
88
50
50
20
20
ENDCHAR

STARTCHAR W
ENCODING 87
SWIDTH 411 0
DWIDTH 6 0
BBX 5 8 1 0
BITMAP
88
88
88
A8
A8
A8
50
50
ENDCHAR

STARTCHAR X
ENCODING 88
SWIDTH 411 0
DWIDTH 6 0
BBX 5 8 1 0
BITMAP
88
88
50
20
50
50
88
88
ENDCHAR

STARTCHAR Y
ENCODING 89
SWIDTH 411 0
DWIDTH 6 0
BBX 5 8 1 0
BITMAP
88
88
50
50
20
20
20
20
ENDCHAR

STARTCHAR Z
ENCODING 90
SWIDTH 411 0
DWIDTH 6 0
BBX 5 8 1 0
BITMAP
F8
08
10
20
40
80
80
F8
ENDCHAR

STARTCHAR bracketleft
ENCODING 91
SWIDTH 411 0
DWIDTH 6 0
BBX 3 10 2 -1
BITMAP
E0
80
80
80
80
80
80
80
80
E0
ENDCHAR

STARTCHAR backslash
ENCODING 92
SWIDTH 411 0
DWIDTH 6 0
BBX 4 8 1 0
BITMAP
80
80
40
40
20
20
10
10
ENDCHAR

STARTCHAR bracketright
ENCODING 93
SWIDTH 411 0
DWIDTH 6 0
BBX 3 10 2 -1
BITMAP
E0
20
20
20
20
20
20
20
20
E0
ENDCHAR

STARTCHAR asciicircum
ENCODING 94
SWIDTH 411 0
DWIDTH 6 0
BBX 5 3 1 7
BITMAP
20
50
88
ENDCHAR

STARTCHAR underscore
ENCODING 95
SWIDTH 411 0
DWIDTH 6 0
BBX 5 1 1 0
BITMAP
F8
ENDCHAR

STARTCHAR grave
ENCODING 96
SWIDTH 411 0
DWIDTH 6 0
BBX 2 2 2 7
BITMAP
80
40
ENDCHAR

STARTCHAR a
ENCODING 97
SWIDTH 411 0
DWIDTH 6 0
BBX 5 6 1 0
BITMAP
70
08
78
88
88
78
ENDCHAR

STARTCHAR b
ENCODING 98
SWIDTH 411 0
DWIDTH 6 0
BBX 5 8 1 0
BITMAP
80
80
B0
C8
88
88
C8
B0
ENDCHAR

STARTCHAR c
ENCODING 99
SWIDTH 411 0
DWIDTH 6 0
BBX 5 6 1 0
BITMAP
70
88
80
80
88
70
ENDCHAR

STARTCHAR d
ENCODING 100
SWIDTH 411 0
DWIDTH 6 0
BBX 5 8 1 0
BITMAP
08
08
68
98
88
88
98
68
ENDCHAR

STARTCHAR e
ENCODING 101
SWIDTH 411 0
DWIDTH 6 0
BBX 5 6 1 0
BITMAP
70
88
F8
80
88
70
ENDCHAR

STARTCHAR f
ENCODING 102
SWIDTH 411 0
DWIDTH 6 0
BBX 5 8 1 0
BITMAP
30
48
40
F0
40
40
40
40
ENDCHAR

STARTCHAR g
ENCODING 103
SWIDTH 411 0
DWIDTH 6 0
BBX 5 8 1 -2
BITMAP
68
90
90
60
80
F0
88
70
ENDCHAR

STARTCHAR h
ENCODING 104
SWIDTH 411 0
DWIDTH 6 0
BBX 5 8 1 0
BITMAP
80
80
B0
C8
88
88
88
88
ENDCHAR

STARTCHAR i
ENCODING 105
SWIDTH 411 0
DWIDTH 6 0
BBX 5 8 1 0
BITMAP
20
00
60
20
20
20
20
F8
ENDCHAR

STARTCHAR j
ENCODING 106
SWIDTH 411 0
DWIDTH 6 0
BBX 4 10 1 -2
BITMAP
10
00
30
10
10
10
10
10
90
60
ENDCHAR

STARTCHAR k
ENCODING 107
SWIDTH 411 0
DWIDTH 6 0
BBX 5 8 1 0
BITMAP
80
80
90
A0
C0
A0
90
88
ENDCHAR

STARTCHAR l
ENCODING 108
SWIDTH 411 0
DWIDTH 6 0
BBX 5 8 1 0
BITMAP
60
20
20
20
20
20
20
F8
ENDCHAR

STARTCHAR m
ENCODING 109
SWIDTH 411 0
DWIDTH 6 0
BBX 5 6 1 0
BITMAP
D0
A8
A8
A8
88
88
ENDCHAR

STARTCHAR n
ENCODING 110
SWIDTH 411 0
DWIDTH 6 0
BBX 5 6 1 0
BITMAP
B0
C8
88
88
88
88
ENDCHAR

STARTCHAR o
ENCODING 111
SWIDTH 411 0
DWIDTH 6 0
BBX 5 6 1 0
BITMAP
70
88
88
88
88
70
ENDCHAR

STARTCHAR p
ENCODING 112
SWIDTH 411 0
DWIDTH 6 0
BBX 5 8 1 -2
BITMAP
B0
C8
88
88
C8
B0
80
80
ENDCHAR

STARTCHAR q
ENCODING 113
SWIDTH 411 0
DWIDTH 6 0
BBX 5 8 1 -2
BITMAP
68
98
88
88
98
68
08
08
ENDCHAR

STARTCHAR r
ENCODING 114
SWIDTH 411 0
DWIDTH 6 0
BBX 5 6 1 0
BITMAP
B8
48
40
40
40
40
ENDCHAR

STARTCHAR s
ENCODING 115
SWIDTH 411 0
DWIDTH 6 0
BBX 5 6 1 0
BITMAP
70
88
70
08
88
70
ENDCHAR

STARTCHAR t
ENCODING 116
SWIDTH 411 0
DWIDTH 6 0
BBX 5 8 1 0
BITMAP
40
40
F0
40
40
40
48
30
ENDCHAR

STARTCHAR u
ENCODING 117
SWIDTH 411 0
DWIDTH 6 0
BBX 5 6 1 0
BITMAP
88
88
88
88
98
68
ENDCHAR

STARTCHAR v
ENCODING 118
SWIDTH 411 0
DWIDTH 6 0
BBX 5 6 1 0
BITMAP
88
88
88
50
50
20
ENDCHAR

STARTCHAR w
ENCODING 119
SWIDTH 411 0
DWIDTH 6 0
BBX 5 6 1 0
BITMAP
88
88
A8
A8
A8
50
ENDCHAR

STARTCHAR x
ENCODING 120
SWIDTH 411 0
DWIDTH 6 0
BBX 5 6 1 0
BITMAP
D8
50
20
20
50
D8
ENDCHAR

STARTCHAR y
ENCODING 121
SWIDTH 411 0
DWIDTH 6 0
BBX 5 8 1 -2
BITMAP
88
88
88
50
50
20
20
C0
ENDCHAR

STARTCHAR z
ENCODING 122
SWIDTH 411 0
DWIDTH 6 0
BBX 5 6 1 0
BITMAP
F8
10
20
40
80
F8
ENDCHAR

STARTCHAR braceleft
ENCODING 123
SWIDTH 411 0
DWIDTH 6 0
BBX 4 10 1 -1
BITMAP
30
40
40
20
C0
20
40
40
40
30
ENDCHAR

STARTCHAR bar
ENCODING 124
SWIDTH 411 0
DWIDTH 6 0
BBX 1 10 3 -1
BITMAP
80
80
80
80
80
80
80
80
80
80
ENDCHAR

STARTCHAR braceright
ENCODING 125
SWIDTH 411 0
DWIDTH 6 0
BBX 4 10 1 -1
BITMAP
C0
20
20
40
30
40
20
20
20
C0
ENDCHAR

STARTCHAR asciitilde
ENCODING 126
SWIDTH 411 0
DWIDTH 6 0
BBX 5 3 1 6
BITMAP
48
A8
90
ENDCHAR

STARTCHAR nobreakspace
ENCODING 160
SWIDTH 342 0
DWIDTH 5 0
BBX 0 0 0 0
BITMAP
ENDCHAR

STARTCHAR exclamdown
ENCODING 161
SWIDTH 411 0
DWIDTH 6 0
BBX 5 10 1 -2
BITMAP
20
50
50
88
88
F8
88
88
10
18
ENDCHAR

STARTCHAR cent
ENCODING 162
SWIDTH 411 0
DWIDTH 6 0
BBX 4 2 1 7
BITMAP
90
60
ENDCHAR

STARTCHAR sterling
ENCODING 163
SWIDTH 411 0
DWIDTH 6 0
BBX 5 8 1 0
BITMAP
40
40
60
40
C0
40
40
78
ENDCHAR

STARTCHAR currency
ENCODING 164
SWIDTH 411 0
DWIDTH 6 0
BBX 5 6 1 1
BITMAP
88
70
50
50
70
88
ENDCHAR

STARTCHAR yen
ENCODING 165
SWIDTH 411 0
DWIDTH 6 0
BBX 4 8 2 0
BITMAP
90
90
80
80
80
80
80
F0
ENDCHAR

STARTCHAR brokenbar
ENCODING 166
SWIDTH 411 0
DWIDTH 6 0
BBX 5 11 1 0
BITMAP
10
20
00
70
88
80
70
08
08
88
70
ENDCHAR

STARTCHAR section
ENCODING 167
SWIDTH 411 0
DWIDTH 6 0
BBX 4 9 2 -1
BITMAP
60
90
40
60
90
60
20
90
60
ENDCHAR

STARTCHAR diaeresis
ENCODING 168
SWIDTH 411 0
DWIDTH 6 0
BBX 3 2 2 7
BITMAP
A0
A0
ENDCHAR

STARTCHAR copyright
ENCODING 169
SWIDTH 411 0
DWIDTH 6 0
BBX 5 11 1 0
BITMAP
50
20
00
70
88
80
70
08
08
88
70
ENDCHAR

STARTCHAR ordfeminine
ENCODING 170
SWIDTH 411 0
DWIDTH 6 0
BBX 5 10 1 -2
BITMAP
70
88
80
70
08
08
88
70
20
20
ENDCHAR

STARTCHAR guillemotleft
ENCODING 171
SWIDTH 411 0
DWIDTH 6 0
BBX 5 11 1 0
BITMAP
50
20
00
F8
20
20
20
20
20
20
20
ENDCHAR

STARTCHAR notsign
ENCODING 172
SWIDTH 411 0
DWIDTH 6 0
BBX 5 11 1 0
BITMAP
10
20
00
F8
08
10
20
40
80
80
F8
ENDCHAR

STARTCHAR hyphen
ENCODING 173
SWIDTH 411 0
DWIDTH 6 0
BBX 3 1 2 4
BITMAP
E0
ENDCHAR

STARTCHAR registered
ENCODING 174
SWIDTH 411 0
DWIDTH 6 0
BBX 5 11 1 0
BITMAP
50
20
00
F8
08
10
20
40
80
80
F8
ENDCHAR

STARTCHAR macron
ENCODING 175
SWIDTH 411 0
DWIDTH 6 0
BBX 5 11 1 0
BITMAP
20
20
00
F8
08
10
20
40
80
80
F8
ENDCHAR

STARTCHAR degree
ENCODING 176
SWIDTH 411 0
DWIDTH 6 0
BBX 3 3 2 6
BITMAP
40
A0
40
ENDCHAR

STARTCHAR plusminus
ENCODING 177
SWIDTH 411 0
DWIDTH 6 0
BBX 5 8 1 -2
BITMAP
70
08
78
88
88
78
10
18
ENDCHAR

STARTCHAR twosuperior
ENCODING 178
SWIDTH 411 0
DWIDTH 6 0
BBX 2 2 3 -2
BITMAP
80
C0
ENDCHAR

STARTCHAR threesuperior
ENCODING 179
SWIDTH 411 0
DWIDTH 6 0
BBX 5 8 1 0
BITMAP
60
20
20
30
60
20
20
F8
ENDCHAR

STARTCHAR acute
ENCODING 180
SWIDTH 411 0
DWIDTH 6 0
BBX 2 2 3 9
BITMAP
40
80
ENDCHAR

STARTCHAR mu
ENCODING 181
SWIDTH 411 0
DWIDTH 6 0
BBX 5 8 1 0
BITMAP
68
28
20
20
20
20
20
F8
ENDCHAR

STARTCHAR paragraph
ENCODING 182
SWIDTH 411 0
DWIDTH 6 0
BBX 5 9 1 0
BITMAP
10
20
00
70
88
70
08
88
70
ENDCHAR

STARTCHAR periodcentered
ENCODING 183
SWIDTH 411 0
DWIDTH 6 0
BBX 3 2 2 7
BITMAP
A0
40
ENDCHAR

STARTCHAR cedilla
ENCODING 184
SWIDTH 411 0
DWIDTH 6 0
BBX 1 2 3 -2
BITMAP
80
80
ENDCHAR

STARTCHAR onesuperior
ENCODING 185
SWIDTH 411 0
DWIDTH 6 0
BBX 5 9 1 0
BITMAP
50
20
00
70
88
70
08
88
70
ENDCHAR

STARTCHAR masculine
ENCODING 186
SWIDTH 411 0
DWIDTH 6 0
BBX 5 8 1 -2
BITMAP
70
88
70
08
88
70
20
20
ENDCHAR

STARTCHAR guillemotright
ENCODING 187
SWIDTH 411 0
DWIDTH 6 0
BBX 5 8 1 0
BITMAP
48
48
F0
40
40
40
48
30
ENDCHAR

STARTCHAR onequarter
ENCODING 188
SWIDTH 411 0
DWIDTH 6 0
BBX 5 9 1 0
BITMAP
10
20
00
F8
10
20
40
80
F8
ENDCHAR

STARTCHAR onehalf
ENCODING 189
SWIDTH 411 0
DWIDTH 6 0
BBX 4 2 1 7
BITMAP
50
A0
ENDCHAR

STARTCHAR threequarters
ENCODING 190
SWIDTH 411 0
DWIDTH 6 0
BBX 5 9 1 0
BITMAP
50
20
00
F8
10
20
40
80
F8
ENDCHAR

STARTCHAR questiondown
ENCODING 191
SWIDTH 411 0
DWIDTH 6 0
BBX 5 9 1 0
BITMAP
20
20
00
F8
10
20
40
80
F8
ENDCHAR

STARTCHAR Agrave
ENCODING 192
SWIDTH 411 0
DWIDTH 6 0
BBX 5 11 1 0
BITMAP
20
40
00
F0
88
88
88
F0
A0
90
88
ENDCHAR

STARTCHAR Aacute
ENCODING 193
SWIDTH 411 0
DWIDTH 6 0
BBX 5 11 1 0
BITMAP
10
20
00
20
50
50
88
88
F8
88
88
ENDCHAR

STARTCHAR Acircumflex
ENCODING 194
SWIDTH 411 0
DWIDTH 6 0
BBX 5 11 1 0
BITMAP
20
50
00
20
50
50
88
88
F8
88
88
ENDCHAR

STARTCHAR Atilde
ENCODING 195
SWIDTH 411 0
DWIDTH 6 0
BBX 5 11 1 0
BITMAP
48
30
00
20
50
50
88
88
F8
88
88
ENDCHAR

STARTCHAR Adiaeresis
ENCODING 196
SWIDTH 411 0
DWIDTH 6 0
BBX 5 11 1 0
BITMAP
50
50
00
20
50
50
88
88
F8
88
88
ENDCHAR

STARTCHAR Aring
ENCODING 197
SWIDTH 411 0
DWIDTH 6 0
BBX 4 11 2 0
BITMAP
40
80
00
80
80
80
80
80
80
80
F0
ENDCHAR

STARTCHAR AE
ENCODING 198
SWIDTH 411 0
DWIDTH 6 0
BBX 5 11 1 0
BITMAP
10
20
00
70
88
80
80
80
80
88
70
ENDCHAR

STARTCHAR Ccedilla
ENCODING 199
SWIDTH 411 0
DWIDTH 6 0
BBX 5 10 1 -2
BITMAP
70
88
80
80
80
80
88
70
20
40
ENDCHAR

STARTCHAR Egrave
ENCODING 200
SWIDTH 411 0
DWIDTH 6 0
BBX 5 11 1 0
BITMAP
50
20
00
70
88
80
80
80
80
88
70
ENDCHAR

STARTCHAR Eacute
ENCODING 201
SWIDTH 411 0
DWIDTH 6 0
BBX 4 11 2 0
BITMAP
10
20
00
F0
80
80
E0
80
80
80
F0
ENDCHAR

STARTCHAR Ecircumflex
ENCODING 202
SWIDTH 411 0
DWIDTH 6 0
BBX 4 10 2 -2
BITMAP
F0
80
80
E0
80
80
80
F0
20
30
ENDCHAR

STARTCHAR Ediaeresis
ENCODING 203
SWIDTH 411 0
DWIDTH 6 0
BBX 4 11 2 0
BITMAP
50
50
00
F0
80
80
E0
80
80
80
F0
ENDCHAR

STARTCHAR Igrave
ENCODING 204
SWIDTH 411 0
DWIDTH 6 0
BBX 4 11 2 0
BITMAP
50
20
00
F0
80
80
E0
80
80
80
F0
ENDCHAR

STARTCHAR Iacute
ENCODING 205
SWIDTH 411 0
DWIDTH 6 0
BBX 5 11 1 0
BITMAP
10
20
00
F8
20
20
20
20
20
20
F8
ENDCHAR

STARTCHAR Icircumflex
ENCODING 206
SWIDTH 411 0
DWIDTH 6 0
BBX 5 11 1 0
BITMAP
20
50
00
F8
20
20
20
20
20
20
F8
ENDCHAR

STARTCHAR Idiaeresis
ENCODING 207
SWIDTH 411 0
DWIDTH 6 0
BBX 5 11 1 0
BITMAP
50
20
00
F0
88
88
88
88
88
88
F0
ENDCHAR

STARTCHAR ETH
ENCODING 208
SWIDTH 411 0
DWIDTH 6 0
BBX 6 8 0 0
BITMAP
78
44
44
F4
44
44
44
78
ENDCHAR

STARTCHAR Ntilde
ENCODING 209
SWIDTH 411 0
DWIDTH 6 0
BBX 5 11 1 0
BITMAP
10
20
00
88
C8
C8
A8
A8
98
98
88
ENDCHAR

STARTCHAR Ograve
ENCODING 210
SWIDTH 411 0
DWIDTH 6 0
BBX 5 11 1 0
BITMAP
50
20
00
88
C8
C8
A8
A8
98
98
88
ENDCHAR

STARTCHAR Oacute
ENCODING 211
SWIDTH 411 0
DWIDTH 6 0
BBX 5 11 1 0
BITMAP
10
20
00
70
88
88
88
88
88
88
70
ENDCHAR

STARTCHAR Ocircumflex
ENCODING 212
SWIDTH 411 0
DWIDTH 6 0
BBX 5 11 1 0
BITMAP
20
50
00
70
88
88
88
88
88
88
70
ENDCHAR

STARTCHAR Otilde
ENCODING 213
SWIDTH 411 0
DWIDTH 6 0
BBX 5 11 1 0
BITMAP
28
50
00
70
88
88
88
88
88
88
70
ENDCHAR

STARTCHAR Odiaeresis
ENCODING 214
SWIDTH 411 0
DWIDTH 6 0
BBX 5 11 1 0
BITMAP
50
50
00
70
88
88
88
88
88
88
70
ENDCHAR

STARTCHAR multiply
ENCODING 215
SWIDTH 411 0
DWIDTH 6 0
BBX 5 5 1 2
BITMAP
88
50
20
50
88
ENDCHAR

STARTCHAR Ooblique
ENCODING 216
SWIDTH 411 0
DWIDTH 6 0
BBX 5 11 1 0
BITMAP
50
20
00
F0
88
88
88
F0
A0
90
88
ENDCHAR

STARTCHAR Ugrave
ENCODING 217
SWIDTH 411 0
DWIDTH 6 0
BBX 5 11 1 0
BITMAP
20
50
20
88
88
88
88
88
88
88
70
ENDCHAR

STARTCHAR Uacute
ENCODING 218
SWIDTH 411 0
DWIDTH 6 0
BBX 5 11 1 0
BITMAP
10
20
00
88
88
88
88
88
88
88
70
ENDCHAR

STARTCHAR Ucircumflex
ENCODING 219
SWIDTH 411 0
DWIDTH 6 0
BBX 5 11 1 0
BITMAP
28
50
00
88
88
88
88
88
88
88
70
ENDCHAR

STARTCHAR Udiaeresis
ENCODING 220
SWIDTH 411 0
DWIDTH 6 0
BBX 5 11 1 0
BITMAP
50
50
00
88
88
88
88
88
88
88
70
ENDCHAR

STARTCHAR Yacute
ENCODING 221
SWIDTH 411 0
DWIDTH 6 0
BBX 5 11 1 0
BITMAP
10
20
00
88
88
50
50
20
20
20
20
ENDCHAR

STARTCHAR THORN
ENCODING 222
SWIDTH 411 0
DWIDTH 6 0
BBX 5 10 1 -2
BITMAP
F8
20
20
20
20
20
20
20
40
40
ENDCHAR

STARTCHAR ssharp
ENCODING 223
SWIDTH 411 0
DWIDTH 6 0
BBX 5 9 1 -1
BITMAP
30
48
48
D0
48
48
48
50
80
ENDCHAR

STARTCHAR agrave
ENCODING 224
SWIDTH 411 0
DWIDTH 6 0
BBX 5 9 1 0
BITMAP
10
20
00
B8
48
40
40
40
40
ENDCHAR

STARTCHAR aacute
ENCODING 225
SWIDTH 411 0
DWIDTH 6 0
BBX 5 9 1 0
BITMAP
10
20
00
70
08
78
88
88
78
ENDCHAR

STARTCHAR acircumflex
ENCODING 226
SWIDTH 411 0
DWIDTH 6 0
BBX 5 9 1 0
BITMAP
30
48
00
70
08
78
88
88
78
ENDCHAR

STARTCHAR atilde
ENCODING 227
SWIDTH 411 0
DWIDTH 6 0
BBX 5 9 1 0
BITMAP
48
30
00
70
08
78
88
88
78
ENDCHAR

STARTCHAR adiaeresis
ENCODING 228
SWIDTH 411 0
DWIDTH 6 0
BBX 5 9 1 0
BITMAP
50
50
00
70
08
78
88
88
78
ENDCHAR

STARTCHAR aring
ENCODING 229
SWIDTH 411 0
DWIDTH 6 0
BBX 5 11 1 0
BITMAP
10
20
00
60
20
20
20
20
20
20
F8
ENDCHAR

STARTCHAR ae
ENCODING 230
SWIDTH 411 0
DWIDTH 6 0
BBX 5 9 1 0
BITMAP
10
20
00
70
88
80
80
88
70
ENDCHAR

STARTCHAR ccedilla
ENCODING 231
SWIDTH 411 0
DWIDTH 6 0
BBX 5 8 1 -2
BITMAP
70
88
80
80
88
70
20
40
ENDCHAR

STARTCHAR egrave
ENCODING 232
SWIDTH 411 0
DWIDTH 6 0
BBX 5 9 1 0
BITMAP
50
20
00
70
88
80
80
88
70
ENDCHAR

STARTCHAR eacute
ENCODING 233
SWIDTH 411 0
DWIDTH 6 0
BBX 5 9 1 0
BITMAP
10
20
00
70
88
F8
80
88
70
ENDCHAR

STARTCHAR ecircumflex
ENCODING 234
SWIDTH 411 0
DWIDTH 6 0
BBX 5 8 1 -2
BITMAP
70
88
F8
80
88
70
20
30
ENDCHAR

STARTCHAR ediaeresis
ENCODING 235
SWIDTH 411 0
DWIDTH 6 0
BBX 5 9 1 0
BITMAP
50
50
00
70
88
F8
80
88
70
ENDCHAR

STARTCHAR igrave
ENCODING 236
SWIDTH 411 0
DWIDTH 6 0
BBX 5 9 1 0
BITMAP
50
20
00
70
88
F8
80
88
70
ENDCHAR

STARTCHAR iacute
ENCODING 237
SWIDTH 411 0
DWIDTH 6 0
BBX 5 9 1 0
BITMAP
10
20
00
60
20
20
20
20
F8
ENDCHAR

STARTCHAR icircumflex
ENCODING 238
SWIDTH 411 0
DWIDTH 6 0
BBX 5 9 1 0
BITMAP
20
50
00
60
20
20
20
20
F8
ENDCHAR

STARTCHAR idiaeresis
ENCODING 239
SWIDTH 411 0
DWIDTH 6 0
BBX 6 8 0 0
BITMAP
0C
0C
68
98
88
88
98
68
ENDCHAR

STARTCHAR eth
ENCODING 240
SWIDTH 411 0
DWIDTH 6 0
BBX 5 9 1 0
BITMAP
A0
40
A0
70
88
88
88
88
70
ENDCHAR

STARTCHAR ntilde
ENCODING 241
SWIDTH 411 0
DWIDTH 6 0
BBX 5 9 1 0
BITMAP
10
20
00
B0
C8
88
88
88
88
ENDCHAR

STARTCHAR ograve
ENCODING 242
SWIDTH 411 0
DWIDTH 6 0
BBX 5 9 1 0
BITMAP
50
20
00
B0
C8
88
88
88
88
ENDCHAR

STARTCHAR oacute
ENCODING 243
SWIDTH 411 0
DWIDTH 6 0
BBX 5 9 1 0
BITMAP
10
20
00
70
88
88
88
88
70
ENDCHAR

STARTCHAR ocircumflex
ENCODING 244
SWIDTH 411 0
DWIDTH 6 0
BBX 5 9 1 0
BITMAP
20
50
00
70
88
88
88
88
70
ENDCHAR

STARTCHAR otilde
ENCODING 245
SWIDTH 411 0
DWIDTH 6 0
BBX 5 9 1 0
BITMAP
28
50
00
70
88
88
88
88
70
ENDCHAR

STARTCHAR odiaeresis
ENCODING 246
SWIDTH 411 0
DWIDTH 6 0
BBX 5 9 1 0
BITMAP
50
50
00
70
88
88
88
88
70
ENDCHAR

STARTCHAR division
ENCODING 247
SWIDTH 411 0
DWIDTH 6 0
BBX 5 7 1 1
BITMAP
20
20
00
F8
00
20
20
ENDCHAR

STARTCHAR oslash
ENCODING 248
SWIDTH 411 0
DWIDTH 6 0
BBX 5 9 1 0
BITMAP
50
20
00
B8
48
40
40
40
40
ENDCHAR

STARTCHAR ugrave
ENCODING 249
SWIDTH 411 0
DWIDTH 6 0
BBX 5 10 1 0
BITMAP
20
50
20
00
88
88
88
88
98
68
ENDCHAR

STARTCHAR uacute
ENCODING 250
SWIDTH 411 0
DWIDTH 6 0
BBX 5 9 1 0
BITMAP
10
20
00
88
88
88
88
98
68
ENDCHAR

STARTCHAR ucircumflex
ENCODING 251
SWIDTH 411 0
DWIDTH 6 0
BBX 5 9 1 0
BITMAP
28
50
00
88
88
88
88
98
68
ENDCHAR

STARTCHAR udiaeresis
ENCODING 252
SWIDTH 411 0
DWIDTH 6 0
BBX 5 9 1 0
BITMAP
50
50
00
88
88
88
88
98
68
ENDCHAR

STARTCHAR yacute
ENCODING 253
SWIDTH 411 0
DWIDTH 6 0
BBX 5 11 1 -2
BITMAP
10
20
00
88
88
88
50
50
20
20
C0
ENDCHAR

STARTCHAR thorn
ENCODING 254
SWIDTH 411 0
DWIDTH 6 0
BBX 5 10 1 -2
BITMAP
40
40
F0
40
40
40
48
30
20
20
ENDCHAR

STARTCHAR ydiaeresis
ENCODING 255
SWIDTH 411 0
DWIDTH 6 0
BBX 1 2 3 7
BITMAP
80
80
ENDCHAR
ENDFONT
